# Blender v2.92.0 OBJ File: ''
# www.blender.org
mtllib daisyA_noFlower_u10cm_tri_decim005.mtl
o daisyA
v -0.078348 0.004807 0.032116
v 0.007183 0.028865 -0.111178
v -0.189894 0.116410 -0.400113
v -0.193964 0.035556 -0.072538
v -0.403507 0.214080 -0.521238
v -0.479811 0.256827 -0.368940
v -0.312610 0.157298 -0.274002
v -0.036528 0.028499 -0.131552
v -0.141831 0.129877 -0.106759
v -0.280447 0.199823 -0.135462
v -0.326525 0.149434 0.029643
v -0.069706 -0.022712 0.029084
v -0.042217 0.028653 -0.145677
v -0.428422 0.092378 0.062696
v -0.570370 -0.015618 0.237817
v -0.511916 0.016211 0.389903
v -0.348068 0.105919 0.238593
v -0.180925 0.050149 0.098764
v -0.029214 -0.012357 0.038880
v -0.105993 -0.003165 -0.105416
v -0.032241 0.037474 0.068473
v -0.203313 0.107469 0.109351
v -0.131068 0.212253 0.309985
v 0.017232 0.165874 0.236231
v 0.119272 0.240107 0.534551
v 0.201905 0.182181 0.385892
v 0.013231 -0.017848 0.033332
v 0.057945 -0.004160 0.016819
v -0.181192 0.162877 0.062026
v -0.109916 -0.000368 -0.067922
v -0.288328 0.316963 0.147313
v -0.432278 0.420457 0.306720
v -0.277041 0.490063 0.365395
v -0.076625 0.249923 0.178027
v -0.114908 0.010492 -0.036483
v 0.041790 0.024108 0.123681
v -0.116755 0.026713 0.041389
v -0.256711 -0.067130 0.239369
v -0.140670 -0.029494 0.365248
v 0.057183 -0.020999 -0.021172
v -0.114562 0.001021 -0.018584
v -0.062485 0.249277 0.338011
v 0.056332 0.363268 0.345458
v 0.068644 0.001663 -0.031776
v 0.078656 0.277499 0.174273
v -0.092694 -0.013936 0.011068
v -0.005111 0.049260 0.164804
v 0.144291 0.127475 0.096544
v 0.050717 0.015705 0.407564
v 0.158213 0.132618 0.461453
v 0.056551 0.004710 -0.080480
v -0.011905 -0.008546 -0.121852
v 0.102080 0.115033 0.026363
v -0.001773 0.001234 0.047160
v 0.262148 0.207509 -0.087375
v 0.318839 0.255721 -0.326531
v 0.247277 0.307806 -0.457886
v 0.091930 0.250534 -0.373810
v 0.128941 0.121467 -0.168751
v -0.048198 0.003960 -0.117834
v 0.019849 -0.013712 0.040259
v 0.149109 0.171934 -0.048793
v 0.295413 0.251015 -0.110792
v 0.225743 0.318577 -0.254411
v 0.090204 0.205618 -0.225260
v -0.074522 0.030873 -0.113072
v 0.016456 -0.011915 0.029232
v 0.145379 0.194777 -0.176873
v 0.394565 0.157229 -0.162860
v 0.258513 0.230710 -0.269457
v -0.096581 0.010462 -0.077681
v 0.064975 0.000092 -0.035938
v 0.114037 0.028723 -0.352698
v -0.062450 0.047549 -0.377642
v -0.114297 0.022788 -0.046485
v -0.079579 0.142246 -0.175058
v 0.057644 -0.019026 -0.047211
v 0.074014 0.105765 -0.232819
v -0.071941 0.289315 -0.450235
v -0.204046 0.283658 -0.319064
v 0.040153 0.018487 -0.099680
v -0.096828 0.232739 -0.196990
v -0.226194 0.238569 -0.080852
v -0.106123 -0.017061 -0.020093
vt 0.004067 -0.000004
vt 0.999501 0.041366
vt 1.000019 0.593384
vt 0.000171 0.196298
vt 0.999501 1.000016
vt -0.001985 0.999924
vt -0.003712 0.682815
vt 0.991588 0.529270
vt 1.000679 0.999453
vt 0.000500 0.958072
vt 0.000500 0.004476
vt 1.000252 0.000000
vt 0.035126 0.684198
vt 0.998371 0.563791
vt 0.999501 0.986434
vt 0.001870 1.000000
vt 1.000683 0.000548
vt 0.000500 0.318532
vt 0.000500 0.007397
vt -0.000036 0.207483
vt 0.999764 0.007872
vt 0.993353 0.278592
vt 0.999501 0.562535
vt 0.007544 0.618800
vt 0.999344 1.001195
vt 0.000139 0.990490
vt 0.000500 0.000000
vt -0.001189 0.001030
vt 0.999501 0.000224
vt 0.979700 0.372692
vt 0.992981 0.670053
vt 0.999499 0.999879
vt 0.000442 0.982871
vt 0.000927 0.437576
vt 0.999976 0.000000
vt 0.999908 0.299084
vt 0.002482 0.285485
vt 0.999501 0.999594
vt -0.002529 0.999898
vt 0.000500 0.000000
vt 1.001326 0.010026
vt 0.999043 0.979727
vt -0.000081 0.997536
vt 0.000500 0.670012
vt 0.000500 0.005501
vt 0.000619 0.385305
vt 0.999487 0.422827
vt 0.999501 0.976875
vt -0.001509 0.997591
vt 1.000802 0.000000
vt 0.000500 -0.000000
vt -0.000640 0.003414
vt 0.999501 0.000000
vt 0.997673 0.203732
vt 0.997093 0.764123
vt 0.999501 0.999980
vt -0.002151 0.991296
vt 0.999946 0.456825
vt 0.001031 0.442560
vt 1.000147 0.560407
vt 0.999501 0.997598
vt 0.000614 1.000000
vt 0.999492 0.008850
vt -0.000755 0.003701
vt 0.000500 0.614108
vt -0.001374 0.000000
vt 0.999366 0.010500
vt 0.000206 0.642673
vt 1.000210 0.998372
vt 0.000500 0.999975
vt -0.001460 0.008353
vt 0.999501 0.000244
vt 0.999501 0.989406
vt -0.001219 0.998877
vt -0.001169 0.000000
vt 0.999501 0.000113
vt 0.001808 0.444193
vt 0.999501 0.399455
vt 0.999542 0.975229
vt -0.002574 0.999926
vt 0.993670 0.000289
vt 0.999501 0.988259
vt -0.001860 0.995791
vt 0.000500 0.004582
vn 0.0774 0.9703 0.2291
vn 0.0903 0.9725 0.2149
vn 0.3722 0.9164 0.1470
vn 0.1530 0.9650 0.2130
vn 0.4301 0.9024 -0.0252
vn 0.4404 0.8973 0.0295
vn 0.4865 0.8577 0.1664
vn 0.5172 0.7129 0.4736
vn 0.3609 0.8507 0.3823
vn 0.4396 0.7676 0.4665
vn 0.5908 0.6868 0.4233
vn 0.6880 0.6383 0.3452
vn -0.2305 0.9730 0.0144
vn -0.1480 0.9890 -0.0011
vn -0.4513 0.8913 0.0430
vn -0.4763 0.8793 -0.0042
vn 0.3283 0.9404 0.0883
vn 0.4442 0.8780 0.1784
vn 0.4293 0.8892 0.1579
vn 0.3587 0.7942 -0.4905
vn 0.3886 0.8295 -0.4012
vn 0.2079 0.8457 -0.4915
vn 0.1421 0.9282 -0.3438
vn 0.1104 0.9016 -0.4182
vn 0.1645 0.9323 -0.3222
vn 0.1428 0.9485 -0.2827
vn 0.5620 0.7203 -0.4067
vn 0.3477 0.6314 -0.6931
vn 0.3348 0.6991 -0.6318
vn 0.3185 0.6328 -0.7058
vn 0.2254 0.7294 -0.6460
vn -0.1118 0.7791 -0.6168
vn 0.0516 0.7646 -0.6424
vn 0.2987 0.6359 -0.7117
vn 0.1571 0.9640 -0.2147
vn -0.0035 0.9993 -0.0371
vn 0.0407 0.9972 -0.0622
vn -0.4167 0.9012 0.1187
vn -0.2858 0.9484 0.1371
vn 0.1966 0.9419 -0.2724
vn -0.2287 0.6782 -0.6983
vn -0.6222 0.6828 -0.3829
vn -0.6015 0.6849 -0.4112
vn -0.4817 0.6990 -0.5285
vn -0.1002 0.5907 -0.8006
vn -0.4585 0.8848 -0.0825
vn -0.4008 0.9125 0.0823
vn -0.6561 0.7544 0.0217
vn -0.7410 0.6713 0.0156
vn -0.4165 0.8669 -0.2739
vn -0.3551 0.8414 -0.4075
vn -0.6987 0.7150 -0.0233
vn -0.7382 0.6746 0.0052
vn -0.6433 0.7650 -0.0311
vn -0.2583 0.8843 0.3891
vn -0.1046 0.8984 0.4265
vn -0.1349 0.8483 0.5120
vn -0.5561 0.8311 -0.0011
vn -0.5310 0.8402 0.1104
vn -0.5576 0.7397 0.3767
vn -0.2484 0.8262 0.5056
vn -0.4160 0.7998 0.4328
vn -0.6326 0.7007 0.3298
vn -0.6787 0.6424 0.3559
vn -0.6468 0.6804 0.3444
vn -0.4187 0.7575 0.5009
vn -0.2619 0.7616 0.5927
vn -0.0423 0.7654 0.6422
vn 0.0773 0.7839 0.6161
vn 0.1099 0.8783 0.4653
vn 0.0579 0.9929 0.1038
vn -0.0115 0.9967 0.0798
vn 0.0539 0.9877 0.1469
vn 0.0867 0.9873 0.1329
vn 0.2072 0.6890 0.6945
vn 0.2339 0.7430 0.6271
vn 0.3453 0.7694 0.5373
vn 0.3707 0.8024 0.4676
vn 0.3742 0.8010 0.4672
vn 0.3994 0.8077 0.4336
vn 0.4349 0.4695 0.7684
vn 0.5419 0.6067 0.5816
vn 0.4955 0.5269 0.6905
vn 0.3652 0.3725 0.8531
vn -0.0774 -0.9703 -0.2291
vn -0.0903 -0.9725 -0.2149
vn -0.3722 -0.9164 -0.1470
vn -0.1530 -0.9650 -0.2130
vn -0.4301 -0.9024 0.0252
vn -0.4404 -0.8973 -0.0295
vn -0.4865 -0.8577 -0.1664
vn -0.5172 -0.7129 -0.4736
vn -0.3609 -0.8507 -0.3823
vn -0.4396 -0.7676 -0.4665
vn -0.5908 -0.6868 -0.4233
vn -0.6880 -0.6383 -0.3452
vn 0.2305 -0.9730 -0.0144
vn 0.1480 -0.9890 0.0011
vn 0.4513 -0.8913 -0.0430
vn 0.4763 -0.8793 0.0042
vn -0.3283 -0.9404 -0.0883
vn -0.4442 -0.8780 -0.1784
vn -0.4293 -0.8892 -0.1579
vn -0.3587 -0.7942 0.4905
vn -0.3886 -0.8295 0.4012
vn -0.2079 -0.8457 0.4915
vn -0.1421 -0.9282 0.3438
vn -0.1104 -0.9016 0.4182
vn -0.1645 -0.9323 0.3222
vn -0.1428 -0.9485 0.2827
vn -0.5620 -0.7203 0.4067
vn -0.3477 -0.6314 0.6931
vn -0.3348 -0.6991 0.6318
vn -0.3185 -0.6328 0.7058
vn -0.2254 -0.7294 0.6460
vn 0.1118 -0.7791 0.6168
vn -0.0516 -0.7646 0.6424
vn -0.2987 -0.6359 0.7117
vn -0.1571 -0.9640 0.2147
vn 0.0035 -0.9993 0.0371
vn -0.0407 -0.9972 0.0622
vn 0.4167 -0.9012 -0.1187
vn 0.2858 -0.9484 -0.1371
vn -0.1966 -0.9419 0.2724
vn 0.2287 -0.6782 0.6983
vn 0.6222 -0.6828 0.3829
vn 0.6015 -0.6849 0.4112
vn 0.4817 -0.6990 0.5285
vn 0.1002 -0.5907 0.8006
vn 0.4585 -0.8848 0.0825
vn 0.4008 -0.9125 -0.0823
vn 0.6561 -0.7544 -0.0217
vn 0.7410 -0.6713 -0.0156
vn 0.4165 -0.8669 0.2739
vn 0.3551 -0.8414 0.4075
vn 0.6987 -0.7150 0.0233
vn 0.7382 -0.6746 -0.0052
vn 0.6433 -0.7650 0.0311
vn 0.2583 -0.8843 -0.3891
vn 0.1046 -0.8984 -0.4265
vn 0.1349 -0.8483 -0.5120
vn 0.5561 -0.8311 0.0011
vn 0.5310 -0.8402 -0.1104
vn 0.5576 -0.7397 -0.3767
vn 0.2484 -0.8262 -0.5056
vn 0.4160 -0.7998 -0.4328
vn 0.6326 -0.7007 -0.3298
vn 0.6787 -0.6424 -0.3559
vn 0.6468 -0.6804 -0.3444
vn 0.4187 -0.7575 -0.5009
vn 0.2619 -0.7616 -0.5927
vn 0.0423 -0.7654 -0.6422
vn -0.0773 -0.7839 -0.6161
vn -0.1099 -0.8783 -0.4653
vn -0.0579 -0.9929 -0.1038
vn 0.0115 -0.9967 -0.0798
vn -0.0539 -0.9877 -0.1469
vn -0.0867 -0.9873 -0.1329
vn -0.2072 -0.6890 -0.6945
vn -0.2339 -0.7430 -0.6271
vn -0.3453 -0.7694 -0.5373
vn -0.3707 -0.8024 -0.4676
vn -0.3742 -0.8010 -0.4672
vn -0.3994 -0.8077 -0.4336
vn -0.4349 -0.4695 -0.7684
vn -0.5419 -0.6067 -0.5816
vn -0.4955 -0.5269 -0.6905
vn -0.3652 -0.3725 -0.8531
g leaves
usemtl Material__2
f 1/1/1 2/2/2 3/3/3
f 3/3/87 2/2/86 1/1/85
f 1/1/1 3/3/3 4/4/4
f 4/4/88 3/3/87 1/1/85
f 3/3/3 5/5/5 6/6/6
f 6/6/90 5/5/89 3/3/87
f 3/3/3 6/6/6 7/7/7
f 7/7/91 6/6/90 3/3/87
f 4/4/4 3/3/3 7/7/7
f 7/7/91 3/3/87 4/4/88
f 9/8/8 10/9/9 11/10/10
f 11/10/94 10/9/93 9/8/92
f 9/8/8 11/10/10 12/11/11
f 12/11/95 11/10/94 9/8/92
f 8/12/12 9/8/8 12/11/11
f 12/11/95 9/8/92 8/12/96
f 17/13/13 14/14/14 15/15/15
f 15/15/99 14/14/98 17/13/97
f 17/13/13 15/15/15 16/16/16
f 16/16/100 15/15/99 17/13/97
f 13/17/17 14/14/14 17/13/13
f 17/13/97 14/14/98 13/17/101
f 13/17/17 17/13/13 18/18/18
f 18/18/102 17/13/97 13/17/101
f 13/17/17 18/18/18 19/19/19
f 19/19/103 18/18/102 13/17/101
f 21/20/20 20/21/21 22/22/22
f 22/22/106 20/21/105 21/20/104
f 22/22/22 23/23/23 24/24/24
f 24/24/108 23/23/107 22/22/106
f 24/24/24 23/23/23 25/25/25
f 25/25/109 23/23/107 24/24/108
f 24/24/24 25/25/25 26/26/26
f 26/26/110 25/25/109 24/24/108
f 22/22/22 24/24/24 21/20/20
f 21/20/104 24/24/108 22/22/106
f 20/21/21 21/20/20 27/27/27
f 27/27/111 21/20/104 20/21/105
f 28/28/28 30/29/29 29/30/30
f 29/30/114 30/29/113 28/28/112
f 31/31/31 32/32/32 33/33/33
f 33/33/117 32/32/116 31/31/115
f 34/34/34 31/31/31 33/33/33
f 33/33/117 31/31/115 34/34/118
f 29/30/30 31/31/31 34/34/34
f 34/34/118 31/31/115 29/30/114
f 29/30/30 34/34/34 28/28/28
f 28/28/112 34/34/118 29/30/114
f 35/35/35 37/36/36 36/37/37
f 36/37/121 37/36/120 35/35/119
f 37/36/36 38/38/38 39/39/39
f 39/39/123 38/38/122 37/36/120
f 37/36/36 39/39/39 36/37/37
f 36/37/121 39/39/123 37/36/120
f 35/35/35 36/37/37 40/40/40
f 40/40/124 36/37/121 35/35/119
f 41/41/41 42/42/42 43/43/43
f 43/43/127 42/42/126 41/41/125
f 41/41/41 45/44/44 44/45/45
f 44/45/129 45/44/128 41/41/125
f 41/41/41 43/43/43 45/44/44
f 45/44/128 43/43/127 41/41/125
f 48/46/46 47/47/47 49/48/48
f 49/48/132 47/47/131 48/46/130
f 48/46/46 49/48/48 50/49/49
f 50/49/133 49/48/132 48/46/130
f 46/50/50 47/47/47 48/46/46
f 48/46/130 47/47/131 46/50/134
f 46/50/50 48/46/46 51/51/51
f 51/51/135 48/46/130 46/50/134
f 52/52/52 54/53/53 53/54/54
f 53/54/138 54/53/137 52/52/136
f 56/55/55 57/56/56 58/57/57
f 58/57/141 57/56/140 56/55/139
f 55/58/58 56/55/55 59/59/59
f 59/59/143 56/55/139 55/58/142
f 53/54/54 55/58/58 59/59/59
f 59/59/143 55/58/142 53/54/138
f 59/59/59 56/55/55 58/57/57
f 58/57/141 56/55/139 59/59/143
f 53/54/54 59/59/59 52/52/52
f 52/52/136 59/59/143 53/54/138
f 62/60/60 63/61/61 64/62/62
f 64/62/146 63/61/145 62/60/144
f 61/63/63 62/60/60 60/64/64
f 60/64/148 62/60/144 61/63/147
f 62/60/60 65/65/65 60/64/64
f 60/64/148 65/65/149 62/60/144
f 62/60/60 64/62/62 65/65/65
f 65/65/149 64/62/146 62/60/144
f 66/66/66 67/67/67 68/68/68
f 68/68/152 67/67/151 66/66/150
f 67/67/67 69/69/69 68/68/68
f 68/68/152 69/69/153 67/67/151
f 69/69/69 70/70/70 68/68/68
f 68/68/152 70/70/154 69/69/153
f 71/71/71 72/72/72 73/73/73
f 73/73/157 72/72/156 71/71/155
f 71/71/71 73/73/73 74/74/74
f 74/74/158 73/73/157 71/71/155
f 75/75/75 77/76/76 76/77/77
f 76/77/161 77/76/160 75/75/159
f 76/77/77 77/76/76 78/78/78
f 78/78/162 77/76/160 76/77/161
f 76/77/77 78/78/78 79/79/79
f 79/79/163 78/78/162 76/77/161
f 79/79/79 80/80/80 76/77/77
f 76/77/161 80/80/164 79/79/163
f 81/81/81 82/82/82 83/83/83
f 83/83/167 82/82/166 81/81/165
f 81/81/81 83/83/83 84/84/84
f 84/84/168 83/83/167 81/81/165
l 10 11
l 78 79
l 85 86
l 99 100
l 109 110
l 12 13
l 49 50
l 57 58
l 105 106
l 128 129
l 80 81
l 92 93
l 94 95
l 72 73
l 21 22
l 47 48
l 64 65
l 74 75
l 76 77
l 87 88
l 107 108
l 59 60
l 101 102
l 103 104
l 111 112
l 14 15
l 16 17
